<?xml version="1.0" encoding="UTF-8" standalone="no"?>
<!-- Created with Inkscape (http://www.inkscape.org/) -->

<svg
   xmlns:dc="http://purl.org/dc/elements/1.1/"
   xmlns:cc="http://creativecommons.org/ns#"
   xmlns:rdf="http://www.w3.org/1999/02/22-rdf-syntax-ns#"
   xmlns:svg="http://www.w3.org/2000/svg"
   xmlns="http://www.w3.org/2000/svg"
   xmlns:sodipodi="http://sodipodi.sourceforge.net/DTD/sodipodi-0.dtd"
   xmlns:inkscape="http://www.inkscape.org/namespaces/inkscape"
   width="488.55624"
   height="488.63013"
   id="svg2"
   version="1.1"
   inkscape:version="0.47pre4 r22446"
   sodipodi:docname="ff60.svg">
  <defs
     id="defs4">
    <inkscape:perspective
       sodipodi:type="inkscape:persp3d"
       inkscape:vp_x="0 : 526.18109 : 1"
       inkscape:vp_y="0 : 1000 : 0"
       inkscape:vp_z="744.09448 : 526.18109 : 1"
       inkscape:persp3d-origin="372.04724 : 350.78739 : 1"
       id="perspective10" />
    <inkscape:perspective
       id="perspective2884"
       inkscape:persp3d-origin="0.5 : 0.33333333 : 1"
       inkscape:vp_z="1 : 0.5 : 1"
       inkscape:vp_y="0 : 1000 : 0"
       inkscape:vp_x="0 : 0.5 : 1"
       sodipodi:type="inkscape:persp3d" />
  </defs>
  <sodipodi:namedview
     id="base"
     pagecolor="#ffffff"
     bordercolor="#666666"
     borderopacity="1.0"
     inkscape:pageopacity="0.0"
     inkscape:pageshadow="2"
     inkscape:zoom="0.35"
     inkscape:cx="487.85497"
     inkscape:cy="49.911657"
     inkscape:document-units="px"
     inkscape:current-layer="layer1"
     showgrid="false"
     inkscape:window-width="1400"
     inkscape:window-height="976"
     inkscape:window-x="0"
     inkscape:window-y="25"
     inkscape:window-maximized="1"
     showborder="true"
     inkscape:showpageshadow="false" />
  <metadata
     id="metadata7">
    <rdf:RDF>
      <cc:Work
         rdf:about="">
        <dc:format>image/svg+xml</dc:format>
        <dc:type
           rdf:resource="http://purl.org/dc/dcmitype/StillImage" />
        <dc:title />
      </cc:Work>
    </rdf:RDF>
  </metadata>
  <g
     inkscape:label="Layer 1"
     inkscape:groupmode="layer"
     id="layer1"
     transform="translate(112.85497,-105.07229)">
    <g
       id="g2832"
       transform="translate(-125.71428,91.428572)">
      <path
         style="fill:#cfe1f4"
         d="M 93.62899,500.09567 C -7.2313606,477.18672 11.688287,354.52158 12.892523,276.90516 24.046379,195.35567 -20.446921,77.244412 66.202483,27.645158 152.01447,-3.2973217 245.70738,21.837637 334.9377,13.200305 425.11091,-4.2456187 519.94155,51.567813 502.03231,152.69928 c -5.61985,96.69696 9.17914,194.61034 -10.15168,290.33371 -42.02173,82.34332 -147.14036,56.12754 -221.98717,59.31473 -58.76099,0.21884 -117.53471,-0.20077 -176.26447,-2.25205 z"
         id="path2862" />
      <path
         style="fill:#c7dcf2"
         d="M 96.927865,500.10902 C -6.9814036,479.67386 11.872432,352.94689 13.649951,274.37546 22.637666,192.12597 -18.938665,63.578559 77.920366,23.150522 162.86953,3.7923815 251.58493,20.198467 338.09029,13.960837 428.23461,-3.7968147 519.23331,55.446084 501.87555,154.51934 c -7.74974,99.51881 14.32387,204.14988 -16.97136,300.02082 -51.87041,71.52119 -150.31126,41.34023 -225.11695,47.76212 -54.29287,0.34066 -108.60196,-0.081 -162.859375,-2.19326 z M 74.939321,144.5943 C 142.67135,134.90675 183.91768,42.965919 262.14677,81.271068 305.06329,105.82191 384.31545,33.307186 303.89379,37.670162 230.03162,43.55852 152.57625,24.760735 81.492484,46.432536 36.870301,54.760338 8.5741348,156.43334 74.939321,144.5943 z"
         id="path2860" />
      <path
         style="fill:#acc8e9"
         d="M 103.64286,500.96311 C 3.8169827,488.69551 4.6323022,370.06072 13.352607,294.149 28.630077,208.18185 -22.350335,85.169742 65.03277,29.65175 150.91056,-3.1939632 245.48613,23.112188 335.16031,14.195546 425.57352,-3.3443991 519.42302,53.752232 501.15273,154.50535 c -5.91675,96.18217 8.95027,193.60637 -10.41099,288.80837 -40.9908,79.93346 -142.97215,55.61199 -215.92761,58.48349 -57.0574,0.37344 -114.1222,0.30447 -171.17127,-0.8341 z M 57.642857,233.4759 C 117.90139,198.95701 109.03473,101.89155 183.38005,81.647109 c 70.16623,-0.327145 143.00176,-8.118356 211.42556,2.478187 62.67136,5.976413 7.75012,147.073594 74.53085,84.628464 C 515.28846,104.24375 441.49507,21.353491 370.03794,34.939941 275.72101,38.750503 181.1328,31.605459 86.961123,40.061111 19.109597,71.561599 24.241757,176.4533 47.049062,232.10574 l 10.593795,1.37016 z"
         id="path2858" />
      <path
         style="fill:#a0bee3"
         d="M 96.768324,499.52259 C -5.0820337,479.55832 13.084662,355.10864 14.404907,278.01056 23.922149,195.15537 -19.137662,66.971215 76.988526,24.554307 162.22116,3.5463405 251.74362,20.731334 338.75745,14.832304 427.33963,-2.0193298 517.78868,54.39303 500.34337,152.53404 c -4.30241,96.56999 10.2235,194.34546 -9.41521,289.88171 -42.14874,82.04722 -146.89698,55.85554 -221.63312,58.80608 -57.51254,0.15517 -115.03171,-0.188 -172.526716,-1.69924 z M 41.059383,316.14922 C 110.66629,332.19944 110.1389,254.92447 88.52716,215.14328 105.29884,156.03577 145.04644,79.459561 214.90104,78.183054 281.62853,102.53904 368.84928,46.29074 418.39858,106.60104 459.18933,158.26775 349.96082,252.12184 449.69842,265.16326 505.83274,231.88012 475.8305,133.79484 467.08829,77.304067 413.2508,3.2787208 308.63336,47.340572 231.94666,34.600794 158.22334,33.639757 31.236121,17.594049 33.596115,126.59252 c 0.51878,62.95251 -1.814527,127.38466 7.463268,189.5567 z m 123.083477,-145.583 c 36.42318,1.93754 140.00577,-48.54841 52.8566,-60.0932 -20.51935,3.08818 -84.85904,34.52138 -52.8566,60.0932 z m 126.52457,-30.94186 c 57.34727,3.01823 46.3656,-53.331575 0,0 z"
         id="path2856" />
      <path
         style="fill:#98b9e4"
         d="M 98.142857,499.59684 C -6.1310827,479.35563 11.409473,352.68576 14.085309,273.67641 25.78237,193.47642 -17.423389,75.908793 68.932903,28.391974 152.20842,0.62000663 242.30786,22.320438 328.53798,15.435969 c 86.81348,-16.5766235 186.8709,27.98449 172.69484,130.373051 -6.60652,98.24641 8.46901,197.65045 -9.76125,295.12356 -40.79124,82.61152 -145.81753,56.6855 -220.11477,60.11958 -57.74001,0.44492 -115.4941,0.26385 -173.213943,-1.45532 z m -45,-177.55578 C 132.53374,334.55869 99.081207,242.18455 91.012763,205.71974 111.47445,148.14878 151.10891,73.508809 222.58206,79.284435 287.10959,102.39429 371.39438,46.54777 419.31701,105.84671 452.5084,176.39369 379.47171,250.33343 376.88318,309.70174 444.4353,351.42045 506.99071,279.8329 477.46781,213.29748 490.91187,140.92801 480.08447,26.898847 381.33407,33.98281 280.69778,39.893236 178.86523,26.032161 78.983969,42.874712 2.0648378,91.300283 46.268361,192.29862 33.280095,265.67844 c 0.771803,17.35328 -5.69308,53.40907 19.862762,56.36262 z M 152.54952,215.90628 c 44.75886,-4.68141 84.58475,-77.49553 99.96022,-92.51427 -63.31362,-44.299684 -114.57005,44.75358 -114.40993,98.27175 l 14.44971,-5.75748 z m 128.97589,-27.81236 c 44.67669,-6.08126 148.13093,-79.47613 50.07869,-75.47213 -31.53257,6.29746 -72.53538,40.69536 -50.07869,75.47213 z"
         id="path2854" />
      <path
         style="fill:#94b4dd"
         d="M 98.142857,499.59684 C -5.4618808,479.99631 11.538756,354.23056 14.106709,275.90397 25.722151,194.84812 -17.573838,74.777132 70.5978,27.718988 155.85877,0.87934557 247.47035,22.97037 335.43234,15.180633 424.98582,-2.1760864 518.49166,53.548325 500.45819,153.7152 c -7.8496,99.83643 16.39302,205.14279 -16.60222,301.05121 -52.86947,70.67651 -150.82084,39.9065 -225.82444,46.37689 -53.29935,0.31683 -106.60922,0.0405 -159.888673,-1.54646 z m -22.5,-161.0532 C 170.24773,321.05632 49.353782,218.12478 107.80806,168.62888 129.68927,99.307257 196.45503,64.792545 265.85955,82.551052 321.55632,87.243646 433.26214,52.978097 424.70879,144.8789 432.89333,213.93898 360.8308,264.20963 367.63348,324.08439 433.80247,388.95442 513.37399,292.35974 476.8957,224.2687 495.44496,140.85504 475.35044,12.751143 360.88563,34.556786 271.1992,41.739105 179.19295,21.935545 91.496287,42.093405 0.92113394,71.536424 43.431043,175.80044 33.729341,244.92557 c 5.414487,31.89352 -16.163069,108.80417 41.913516,93.61807 z m 92.067663,-82.93099 c 49.84456,-45.65171 151.2615,4.53839 183.19272,-44.7574 -48.70669,-30.40029 -19.68693,-60.68546 23.06726,-68.81927 9.93746,-63.934198 -102.99952,-22.08881 -100.25376,32.96164 -28.84319,85.43122 -116.32105,-35.19648 -25.94933,-29.48093 32.47664,-58.222143 -108.91342,-37.50063 -95.94611,23.18138 -17.04168,29.87963 -35.97391,79.24376 15.88922,86.91458 z"
         id="path2852" />
      <path
         style="fill:#86a9d6"
         d="M 99.377711,499.58991 C -2.8463431,481.49718 8.8761717,358.34247 14.498415,280.72436 27.979536,198.94689 -18.568556,80.7368 67.098172,29.972583 150.08542,-0.22646236 240.886,22.966243 327.28831,15.693883 415.35564,-1.4408328 516.0495,44.896679 501.46318,148.29951 c -7.06568,96.95277 7.32289,194.981 -9.64041,291.29095 -38.88203,82.88677 -143.66944,58.29658 -217.15051,61.47252 -58.43318,0.53539 -116.88381,0.37922 -175.294549,-1.47307 z M 111.71529,399.31116 C 132.46619,329.5305 87.776297,260.50788 95.447263,197.36175 115.60731,137.86687 160.32704,67.405895 233.33497,80.06798 c 62.28075,25.81338 157.91349,-40.272113 190.74539,39.09856 6.42659,60.73459 -14.10815,122.41231 -55.05703,169.55717 -41.85209,56.02073 14.90594,137.56239 81.87888,110.7291 60.80316,-52.7134 8.13074,-148.29773 30.17312,-218.43706 C 499.78006,94.879224 438.12304,9.1834871 345.87505,34.497552 257.05173,36.635619 165.95243,26.53125 78.64032,42.017087 8.6286862,82.187352 38.477404,173.90462 34.211218,239.27677 44.840152,300.99861 -0.29118105,425.42883 102.46341,397.28157 l 9.25188,2.02959 0,0 z M 177.5563,283.11982 c 31.0292,-67.69176 91.11581,-39.54185 144.02171,-39.43139 84.72851,-20.48204 -36.67082,-64.01088 25.37758,-91.27923 91.73023,-37.85125 -64.58804,-69.228688 -65.43198,2.47971 2.46805,73.75872 -114.99643,50.33154 -56.30292,-5.78579 99.57464,-23.88368 -66.16338,-70.076264 -67.08378,2.81232 -28.44379,36.70629 -29.5659,135.96986 19.41939,131.20438 z"
         id="path2850" />
      <path
         style="fill:#7ba2d8"
         d="M 104.31913,500.0022 C 4.1931961,488.4796 6.3774963,369.43567 14.689247,294.01984 28.318879,208.28892 -19.567651,82.884883 69.21896,29.42821 151.07693,1.0660663 240.00562,23.244033 324.9276,16.526197 411.51612,-0.66219613 513.91291,40.597291 500.33101,144.44796 c -6.94266,99.1552 9.74973,201.11305 -10.53057,298.59088 -43.64587,81.47925 -148.20154,55.19243 -223.43852,57.95835 -54.01559,0.0757 -108.03333,-0.1321 -162.04279,-0.99499 z m 312.78145,-24.46453 c 87.04,-27.53158 56.90519,-135.83572 62.21265,-204.49154 C 468.74253,196.76094 513.07953,84.351673 429.9124,42.663484 351.19316,21.964249 267.98651,38.925325 187.37969,33.235343 105.72356,15.60791 11.985268,57.919068 31.208699,154.80221 c 7.522586,93.43366 -6.844173,190.13789 13.619133,281.51659 46.537382,67.9953 140.250988,34.08156 208.898678,42.26621 54.47029,0.18369 108.95866,-0.4629 163.37407,-3.04734 z M 142.05612,429.64064 C 78.001091,389.92611 146.22823,303.73283 97.278689,253.52557 77.333787,195.70675 118.90671,136.69375 158.16321,98.528148 c 59.7733,-40.700166 131.93238,0.901689 197.45894,-19.186433 84.18552,-9.9577 76.83949,87.285795 51.11037,138.881065 -22.42222,50.1414 -64.91466,95.83769 -44.31903,157.78854 0.52033,90.35896 -105.32631,39.93591 -156.15305,48.83137 -20.57796,6.16791 -43.16421,14.52876 -64.20432,4.79795 z m 36.58674,-144.44269 c 25.54578,-55.1667 85.97881,-58.80856 125.17394,-26.04831 54.52896,-6.09224 68.98026,-55.91334 20.93975,-79.59571 1.76928,-31.09952 101.11502,-43.96219 28.85228,-69.55895 -75.53736,-20.605859 -65.29767,99.62465 -127.19064,94.02341 -71.24077,-43.95223 90.3514,-76.31703 0.78464,-93.57633 -68.23484,-7.15143 -98.76484,77.57735 -86.7874,133.26163 5.8688,12.55861 19.2014,56.39799 38.22743,41.49426 z"
         id="path2848" />
      <path
         style="fill:#739bd4"
         d="M 101.64286,499.49257 C -2.0970261,483.21116 8.2592345,356.97516 15.842737,278.43451 16.393092,236.39807 8.4567186,157.0367 26.851632,155.47521 c 15.111857,66.06489 0.325638,134.9766 7.286161,202.20256 -19.392916,94.75486 71.906357,139.48788 152.768247,121.85367 81.10646,-6.68593 164.61265,10.33151 244.11283,-9.87707 75.29974,-38.9005 39.34736,-138.30416 48.50527,-205.9708 C 471.75345,192.41887 506.34966,92.747235 437.68583,45.25143 367.98252,18.875152 291.12742,39.749232 218.32188,33.205752 c -37.43445,4.451756 -60.67499,-11.0168 -8.90676,-15.564401 77.29982,6.240681 159.35612,-14.0471988 232.8265,11.327501 77.80812,37.905536 53.40448,129.249518 56.13307,198.370088 -1.14855,74.05018 10.0541,151.98007 -12.7726,223.15349 -50.23865,75.50972 -151.88676,45.56705 -227.82407,50.73152 -52.04921,0.0716 -104.10318,-0.32867 -156.13516,-1.73138 z m 39.72608,-70.52594 c -60.13754,-37.041 1.51558,-116.67989 -40.43258,-164.6099 -26.317473,-62.82653 17.07867,-129.91448 62.76278,-169.232912 61.79353,-33.284389 131.42221,4.36976 196.72228,-15.392348 85.81093,-6.818425 66.64663,97.49625 44.07214,148.21669 -46.17967,48.84365 -47.15546,107.4317 -45.60289,171.54413 -43.76763,70.08185 -136.08524,-0.93348 -198.50192,33.08105 l -9.62087,-1.17333 -9.39894,-2.43338 0,0 z m 59.42308,-95.20599 c -28.57709,-49.32549 42.88574,-153.19154 68.25806,-68.78882 -14.04537,44.40248 49.90633,104.45304 53.81971,31.6962 -17.15662,-53.67225 80.77657,-77.91117 13.67261,-107.02517 -49.30737,-46.9565 108.34971,-42.379 22.02465,-78.15591 -78.45953,-28.503329 -71.46296,93.89216 -129.06895,91.90461 -91.13393,-35.46325 101.53499,-69.3662 4.50529,-94.67275 -71.1251,-6.32759 -123.60293,91.08406 -88.01549,148.06464 4.58478,32.80938 1.86941,96.12853 54.80412,76.9772 z"
         id="path2846" />
      <path
         style="fill:#6a95d1"
         d="M 96.768324,498.53186 C -9.9252099,475.93915 16.680334,347.00631 15.191707,267.24983 4.017922,225.16171 36.108913,185.70468 33.828212,248.12973 c 5.540497,66.5634 -20.855768,143.95492 22.31924,201.1576 48.550688,53.57877 123.504408,22.33166 185.710038,29.6084 66.5198,-1.62072 137.89873,9.65489 200.88364,-13.35468 C 506.17389,411.2921 469.58176,318.69491 480.07736,246.83527 471.62438,177.65 511.38199,53.627768 414.0371,37.473964 374.33919,39.516721 269.61572,19.227967 364.44611,15.474266 447.99548,-0.0435941 514.10492,74.954334 498.93872,155.91845 c -6.21366,96.63618 12.23965,195.19067 -11.23734,290.35863 -45.42443,78.81422 -148.35197,47.98018 -222.75908,53.82163 -56.06094,0.34234 -112.1333,0.0872 -168.173976,-1.56685 z M 142.64286,428.96258 C 80.273331,392.32107 143.109,310.71875 100.92794,261.96379 c -32.434797,-36.98225 16.2846,-137.38126 44.92863,-90.72946 -26.27536,66.34734 14.43306,124.8892 7.52533,193.88674 62.56133,55.30437 51.53808,-64.38453 48.21739,-101.98109 44.0978,-85.04796 95.25554,35.9484 71.19642,86.49704 19.25557,85.17853 89.40974,-31.99394 46.94744,-69.11504 16.02796,-34.65448 76.70968,-73.25063 7.90735,-94.20512 7.27129,-36.13812 100.62971,-61.79812 18.69953,-78.62917 C 263.93715,90.920365 284.98562,254.68806 207.04992,182.35081 202.7817,145.64188 311.60388,145.76523 245.87577,110.78828 222.4851,68.542018 346.62615,88.024801 379.82743,81.754653 453.299,101.10647 422.84289,189.6637 399.66305,237.69268 349.32152,283.8792 364.14356,344.66162 355.97743,404.1661 c -36.76175,59.24577 -114.68404,-2.29677 -169.34988,22.11858 -14.88953,7.87271 -28.44816,5.57475 -43.98469,2.6779 z"
         id="path2844" />
      <path
         style="fill:#5886c8"
         d="M 95.142857,497.94854 C 2.7262451,480.15527 5.544672,359.59515 18.558249,289.06106 c 40.07769,26.02699 -19.45552784,159.34659 67.107327,184.91796 65.353174,12.21697 133.707844,2.81069 200.321624,6.78578 58.72873,-7.26787 137.75379,18.02156 177.92966,-37.09947 34.55938,-77.62012 8.25118,-165.77885 17.12179,-248.00006 16.26993,-43.71858 -28.83739,-112.937154 -0.48282,-134.851198 34.25693,76.015728 9.76353,163.438578 18.01817,244.249438 11.78581,80.30744 -2.89228,200.48315 -109.83666,195.25051 -97.76293,0.3588 -195.76901,0.82795 -293.594483,-2.36548 z M 141.57,428.15359 c -53.461071,-43.63205 -8.85389,-123.1619 -35.17198,-179.69155 77.30035,-30.87681 22.91688,91.71372 51.76881,130.10072 69.61239,42.95801 34.88442,-88.33321 50.51127,-124.06438 67.16607,-62.40087 74.30651,57.9906 61.23766,102.29557 20.47536,77.20242 83.17628,-2.37341 55.85833,-49.15424 -28.83278,-55.60737 86.1904,-92.77008 6.12625,-122.04249 -1.71842,-47.25692 59.53522,-32.43004 73.8251,-72.28112 41.43675,27.27708 1.27335,113.31505 -23.06305,153.8397 -55.567,39.4167 12.75059,124.8916 -49.79863,158.78312 -60.14925,9.40807 -121.07914,-16.62116 -180.27642,6.13595 l -11.01734,-3.92128 0,0 z m 71.75143,-230.54242 c 26.34709,-49.51236 83.54124,20.92477 0,0 z"
         id="path2842" />
      <path
         style="fill:#4c7cc2"
         d="M 100.14286,498.59903 C 27.517959,500.45795 -10.848004,370.30389 25.154009,349.57111 c 5.150675,66.62264 34.869128,152.64273 119.508091,130.0565 93.21687,-0.19313 186.60043,3.85027 279.66696,-3.29709 80.09209,-32.74748 51.74464,-133.33425 56.66201,-200.6048 -7.1838,-36.41698 6.24216,-143.70454 17.25842,-53.34404 -11.72323,77.20651 22.43945,162.64115 -19.53866,232.51121 -43.23192,67.0693 -126.79048,41.5148 -192.81243,44.73432 -61.91766,-0.066 -123.86543,1.53913 -185.75554,-1.02818 z m 42.5,-70.88911 c -48.420396,-16.34245 -38.29252,-146.15488 2.73895,-104.28751 -15.22943,50.41733 55.93867,106.19455 58.83327,30.75642 -22.87363,-49.79765 36.64132,-139.92469 69.80639,-63.22608 -22.49215,43.1246 10.97981,148.53629 54.02829,73.54676 -7.32685,-58.84947 -14.19632,-147.5414 69.96469,-147.5525 24.18132,34.39315 -65.2984,74.067 -38.88459,127.67639 23.44768,87.98138 -67.99163,97.44676 -128.64074,74.19275 -29.0346,3.1038 -58.73404,25.67715 -87.84626,8.89377 z"
         id="path2840" />
      <path
         style="fill:#4974b9"
         d="M 100.06459,498.53414 C 24.727417,504.29569 -8.368449,360.49053 25.596794,354.51066 c -4.829503,79.31599 59.162231,150.44163 141.105866,126.39891 88.35771,-4.09716 179.0254,8.27411 265.85867,-7.88728 71.68674,-40.5938 45.35053,-135.03057 47.29057,-202.55645 -6.7476,-32.09936 19.21953,-73.31236 17.49774,-16.30448 -8.75343,72.35583 24.60318,161.31663 -32.67877,219.50911 -72.6314,50.70103 -165.61947,16.30081 -247.46548,26.26399 -39.04945,0.26925 -78.11931,0.30575 -117.1408,-1.40032 z m 41.87498,-71.28927 c -44.157809,-17.11074 -39.16677,-140.01592 4.2961,-105.39457 -18.28186,46.62487 39.71248,106.85495 59.19945,39.42845 -22.9332,-50.54087 34.79182,-147.70878 68.1199,-66.81517 -23.46527,45.68473 17.56321,149.01115 55.21697,66.91217 -2.245,-49.84207 -18.72312,-156.74544 66.01997,-124.01848 -13.06701,39.46124 -60.95089,76.98628 -33.43316,131.36746 4.51128,93.31224 -99.43038,46.08991 -152.03744,51.76166 -20.81191,18.69462 -42.66833,6.39312 -67.38179,6.75848 z"
         id="path2838" />
      <path
         style="fill:#3667b5"
         d="M 95.950508,497.10269 C 25.180328,504.52186 -8.3901615,357.52346 29.397142,363.13099 18.055827,443.69056 92.557994,502.7722 168.59693,480.43948 c 85.2136,-0.86865 170.65175,4.93262 255.67274,-3.15703 82.47433,-32.09258 49.9949,-132.74985 59.46205,-198.3836 26.55641,24.72078 25.70436,146.95461 -15.61918,191.07188 -67.46451,52.17126 -159.30156,20.42074 -237.66535,29.32484 -44.83954,0.0786 -89.69244,-0.28162 -134.496682,-2.19288 z m 47.293042,-70.08153 c -50.087824,-13.22232 -32.57309,-146.15549 0.0279,-97.90592 -17.86262,67.51303 75.07177,96.7028 61.52902,14.3598 -30.98733,-67.2731 77.11434,-113.19865 67.14007,-27.07703 -30.70927,54.47045 49.81553,118.60476 58.34747,38.3856 -7.14538,-33.60377 -11.35534,-126.65543 40.26056,-96.66811 -33.5961,55.71927 26.79954,156.12436 -61.69829,174.99144 -57.90934,-23.9426 -106.43722,-1.45561 -165.60676,-6.08578 z"
         id="path2836" />
      <path
         style="fill:#2e5dad"
         d="M 100.87157,497.56488 C 44.478239,517.12617 -7.1005462,362.39101 49.738092,450.0782 c 59.961178,62.54086 151.662408,17.65528 226.313468,32.46408 72.3482,12.3869 172.13443,-10.07525 210.34808,-44.98931 -33.49466,88.63497 -151.12674,55.57595 -225.33133,60.87815 -53.39604,0.95453 -106.81395,0.65145 -160.19674,-0.86624 z m 42.91179,-71.59387 c -26.59764,-53.69161 126.13908,-6.05592 39.89599,3.54579 -13.33949,-0.54532 -26.72354,-1.20932 -39.89599,-3.54579 z m 121.94347,-0.0129 c -22.29572,-56.17048 135.17932,0.93694 34.00343,3.27856 -11.37699,0.81702 -23.1259,0.62928 -34.00343,-3.27856 z"
         id="path2834" />
    </g>
    <path
       style="font-size:40px;font-style:normal;font-weight:normal;fill:#000000;fill-opacity:1;stroke:none;font-family:Bitstream Vera Sans"
       d="m 117.80217,472.3881 c -67.594701,-30.54182 -94.016972,63.7993 -35.298218,81.19211 -30.622563,-0.58282 -57.78073,0.55455 -13.092833,22.37956 65.384321,3.61986 55.618751,-79.94674 2.53032,-85.89483 2.664101,-19.12439 67.836411,26.72908 45.860731,-17.67684 z m 52.6,23.4 c -29.63526,-62.84182 100.84757,-15.88723 42.43899,-68.54449 -77.88011,-20.33439 -115.227325,110.02905 -40.87089,136.85243 93.66249,41.57511 79.46996,-128.76871 -1.5681,-68.30794 z m 18.8,1.8 c 61.44305,27.42133 -54.63952,81.6726 -11.8703,7.54627 l 5.32011,-4.67967 6.55019,-2.8666 0,0 z m 113.04375,-71.2 c -101.10265,10.34424 -40.01682,205.86786 39.38436,120.15719 27.0093,-39.04671 14.94105,-113.16351 -39.38436,-120.15719 z m -0.2,10.4 c 47.45433,27.05691 4.44151,160.22802 -19.87101,71.392 -0.56507,-24.72691 3.23062,-51.95268 19.87101,-71.392 z"
       id="text2829" />
  </g>
</svg>
