<?xml version="1.0" encoding="UTF-8" standalone="no"?>
<!-- Created with Inkscape (http://www.inkscape.org/) -->

<svg
   xmlns:dc="http://purl.org/dc/elements/1.1/"
   xmlns:cc="http://creativecommons.org/ns#"
   xmlns:rdf="http://www.w3.org/1999/02/22-rdf-syntax-ns#"
   xmlns:svg="http://www.w3.org/2000/svg"
   xmlns="http://www.w3.org/2000/svg"
   xmlns:sodipodi="http://sodipodi.sourceforge.net/DTD/sodipodi-0.dtd"
   xmlns:inkscape="http://www.inkscape.org/namespaces/inkscape"
   width="488.55624"
   height="488.63013"
   id="svg2"
   version="1.1"
   inkscape:version="0.47pre4 r22446"
   sodipodi:docname="ff60.svg">
  <defs
     id="defs4">
    <inkscape:perspective
       sodipodi:type="inkscape:persp3d"
       inkscape:vp_x="0 : 526.18109 : 1"
       inkscape:vp_y="0 : 1000 : 0"
       inkscape:vp_z="744.09448 : 526.18109 : 1"
       inkscape:persp3d-origin="372.04724 : 350.78739 : 1"
       id="perspective10" />
    <inkscape:perspective
       id="perspective2884"
       inkscape:persp3d-origin="0.5 : 0.33333333 : 1"
       inkscape:vp_z="1 : 0.5 : 1"
       inkscape:vp_y="0 : 1000 : 0"
       inkscape:vp_x="0 : 0.5 : 1"
       sodipodi:type="inkscape:persp3d" />
  </defs>
  <sodipodi:namedview
     id="base"
     pagecolor="#ffffff"
     bordercolor="#666666"
     borderopacity="1.0"
     inkscape:pageopacity="0.0"
     inkscape:pageshadow="2"
     inkscape:zoom="0.35"
     inkscape:cx="487.85497"
     inkscape:cy="49.911657"
     inkscape:document-units="px"
     inkscape:current-layer="layer1"
     showgrid="false"
     inkscape:window-width="1680"
     inkscape:window-height="976"
     inkscape:window-x="0"
     inkscape:window-y="25"
     inkscape:window-maximized="1"
     showborder="true"
     inkscape:showpageshadow="false" />
  <metadata
     id="metadata7">
    <rdf:RDF>
      <cc:Work
         rdf:about="">
        <dc:format>image/svg+xml</dc:format>
        <dc:type
           rdf:resource="http://purl.org/dc/dcmitype/StillImage" />
        <dc:title></dc:title>
      </cc:Work>
    </rdf:RDF>
  </metadata>
  <g
     inkscape:label="Layer 1"
     inkscape:groupmode="layer"
     id="layer1"
     transform="translate(112.85497,-105.07229)">
    <g
       id="g2832"
       transform="translate(-125.71428,91.428572)"
       inkscape:export-filename="/home/ilvar/job/ff60/logo/ff60.png"
       inkscape:export-xdpi="90"
       inkscape:export-ydpi="90">
      <path
         style="fill:#cfe1f4"
         d="M 93.62899,500.09567 C 55.25064,491.4171 24.707406,461.9343 15.057282,424.2519 12.428192,413.98567 12.010409,107.59069 14.608659,95.239042 22.789517,56.34859 51.823461,26.398743 90.970511,16.468278 c 14.766369,-3.745797 317.531059,-3.77541 331.725149,-0.03245 37.84315,9.979189 64.48291,36.296878 75.16571,74.256943 3.73129,13.258689 5.02394,311.100979 1.42621,328.615209 -8.27713,40.29424 -39.55835,71.86849 -80.08095,80.83111 -12.99153,2.87341 -312.85567,2.83342 -325.57764,-0.0434 z"
         id="path2862" />
      <path
         style="fill:#c7dcf2"
         d="M 96.927865,500.10902 C 57.022181,491.6445 28.469158,465.86847 16.41839,427.42969 12.188813,413.93845 12.36202,106.39718 16.608212,90.385665 26.113359,54.543731 54.260715,26.449838 89.523972,17.6084 104.11642,13.949685 408.93816,13.294203 422.14286,16.893143 c 37.83721,10.312533 65.51595,37.660886 75.07951,74.183325 4.81356,18.382562 5.38338,314.995742 0.63876,332.500002 -10.22081,37.70753 -37.3571,64.85667 -75.21827,75.25386 -13.28552,3.64839 -309.06879,4.80957 -325.714995,1.27869 z M 74.939321,144.5943 c 2.418913,-3.91455 5.338903,-4.51783 21.867025,-4.51783 9.733634,0 16.465594,-0.39984 16.836514,-1 0.35052,-0.56716 -0.48962,-1 -1.94098,-1 -2.79745,0 -3.55476,-2.40392 -1.05902,-3.36163 1.79465,-0.68867 4.5,0.2081 4.5,1.49167 0,0.50384 1.125,0.17894 2.5,-0.722 2.35835,-1.54525 2.5008,-1.53239 2.51407,0.22695 0.008,1.02576 1.84468,-1.50999 4.08209,-5.63499 27.00784,-49.792823 81.78088,-65.484569 158.86016,-45.511321 5.26909,1.36536 5.99774,1.315002 13.06203,-0.902721 4.11491,-1.29181 12.31915,-3.405661 18.23165,-4.697447 8.73281,-1.907977 10.75,-2.680817 10.75,-4.118607 0,-0.973448 0.45,-1.769906 1,-1.769906 0.55,0 1,-0.726075 1,-1.613499 0,-1.239263 0.72685,-1.506821 3.13378,-1.153559 2.43873,0.35793 3.24087,0.05042 3.61663,-1.386501 0.26557,-1.015542 1.31454,-1.846441 2.33104,-1.846441 1.0165,0 2.32985,-0.9 2.91855,-2 0.85431,-1.596299 0.76049,-2 -0.46482,-2 -1.05343,0 -1.53518,-0.982731 -1.53518,-3.131669 0,-3.053782 0.0954,-3.118879 3.8341,-2.617408 4.15936,0.557886 7.1659,-0.568212 7.1659,-2.683982 0,-0.733523 0.89618,-1.568034 1.99151,-1.854469 1.09532,-0.286434 2.78282,-1.911073 3.75,-3.610308 0.96717,-1.699235 2.20995,-3.092364 2.76174,-3.095841 1.28298,-0.0081 6.49675,-5.499875 6.49675,-6.843189 0,-0.559067 0.7875,-1.222281 1.75,-1.473808 5.84953,-1.528641 -259.45919,-0.607745 -267.150221,0.927288 -39.410488,7.865835 -61.599782,39.479588 -61.599782,87.763058 0,19.68012 0,19.68012 19.046464,19.4784 12.964608,-0.1373 19.271115,-0.56526 19.75,-1.34024 z"
         id="path2860" />
      <path
         style="fill:#acc8e9"
         d="M 103.64286,500.96311 C 55.740814,494.8838 16.568093,454.99892 13.658529,409.34286 11.816945,380.44523 14.808229,97.549891 17.039682,89.576468 27.04274,53.833558 55.4926,26.259895 91.325296,17.578696 c 16.259194,-3.93912 315.881034,-3.94029 331.439344,-0.0013 37.04749,9.379555 64.24827,36.964195 74.59311,75.645773 3.30912,12.373511 4.12991,311.770641 0.89534,326.590901 -8.80947,40.36357 -38.47646,69.94686 -80.11023,79.8842 -8.36919,1.9976 -299.50044,3.16845 -314.5,1.26483 z M 57.642857,233.4759 c 3.3,-0.84113 7.575,-1.93937 9.5,-2.44052 1.925,-0.50116 6.919181,-0.92193 11.098179,-0.93505 7.598179,-0.0239 7.598179,-0.0239 8.22335,-14.77386 1.212159,-28.59913 9.422376,-43.72738 25.937184,-47.79218 1.8976,-0.46706 2.9419,-1.50287 3.34561,-3.31841 17.02288,-76.554114 79.04212,-105.165028 168.05124,-77.525945 4.9402,1.53403 5.3982,1.510118 10.96437,-0.572454 21.17126,-7.921183 55.36925,-11.105306 77.38007,-7.204741 48.93066,8.671064 54.9676,14.709511 56.39731,56.41137 0.9614,28.04221 -3.04738,41.34977 -15.05359,49.97198 -8.6341,6.20054 -5.18935,10.53727 4.79037,6.03079 5.74279,-2.59324 7.53392,-2.89402 18.2985,-3.07277 9.04263,-0.15016 12.33803,-0.56507 13.60662,-1.71312 1.49649,-1.35431 1.8112,-1.34969 2.9675,0.0436 1.16173,1.3998 1.50735,1.36121 3.39338,-0.37892 3.32444,-3.06726 9.39698,-5.12916 15.106,-5.12916 6.77441,0 9.58751,-61.41638 3.87042,-84.500002 C 468.38423,67.767246 443.02831,43.569759 413.7859,37.663409 401.01721,35.084405 107.02177,35.337431 96.142857,37.936788 52.92409,48.26328 35.145229,77.183881 35.143675,137.16323 c -0.0027,104.6365 -0.573387,102.19359 22.499182,96.31267 z"
         id="path2858" />
      <path
         style="fill:#a0bee3"
         d="M 96.768324,499.52259 C 59.303833,492.07853 30.837157,466.97413 17.930882,429.99686 13.160962,416.33075 12.657918,107.67639 17.378048,90.792979 27.549353,54.411303 53.625329,28.373335 89.966371,18.310461 c 15.389969,-4.261499 319.196699,-4.26617 334.436159,-0.0051 35.03408,9.795701 60.77896,35.304814 71.42527,70.771149 4.37838,14.58583 6.8732,306.29364 2.80307,327.74964 -8.05956,42.48654 -40.25183,74.67881 -82.73837,82.73837 -11.32339,2.14801 -308.29903,2.10903 -319.124176,-0.0419 z M 41.059383,316.14922 c 0.831629,-0.5264 2.384528,-0.52859 3.760866,-0.005 3.32601,1.26455 10.934625,0.004 13.52271,-2.24099 1.781476,-1.54506 3.323544,-1.82009 8.245591,-1.47057 6.325612,0.44918 13.92677,-0.53434 21.554307,-2.78893 2.475,-0.73157 8.861518,-2.37526 14.192263,-3.65263 11.13078,-2.66719 11.24372,-2.94279 10.61999,-25.91432 -0.29104,-10.719 -0.45173,-11.51996 -2.366,-11.79383 -14.281882,-2.04334 -22.944994,-21.40085 -22.540221,-50.36556 0.422825,-30.2565 6.199499,-42.55032 22.963391,-48.87028 4.63058,-1.74604 4.63058,-1.74604 8.66041,-17.21933 14.6769,-56.354726 65.92639,-83.611516 133.97017,-71.251377 13.08552,2.376982 29.64282,6.3253 32.30507,7.703594 1.80624,0.935123 2.99646,0.914066 5.5,-0.09731 42.07984,-16.999298 113.07033,-11.213567 128.65324,10.485251 14.49168,20.179302 9.90362,72.832742 -7.43119,85.281662 -5.85543,4.20505 -5.83087,4.14078 -4.14255,10.84079 5.9445,23.59041 1.85998,55.42378 -8.58784,66.93057 -2.00547,2.20875 -0.97527,4.20191 1.40991,2.72779 0.66365,-0.41016 17.72552,-0.77421 37.91526,-0.80902 20.18974,-0.0348 36.97303,-0.32705 37.2962,-0.64944 1.17888,-1.17606 2.69002,-149.10058 1.60155,-156.77525 C 473.24747,71.559461 448.38644,44.570206 414.47146,37.071724 400.54359,33.992322 109.88642,33.988473 96.681255,37.067515 73.045846,42.578572 53.756008,57.903872 42.717453,79.940422 c -9.112657,18.19183 -8.973572,16.49725 -8.213652,100.073828 1.268593,139.52068 1.266762,139.48265 6.555582,136.13497 z m 123.083477,-145.583 c 5.92016,-2.22731 9.42792,-2.86898 16.65245,-3.04621 18.27216,-0.44824 21.32754,-1.15085 23.06053,-5.30296 6.643,-15.91604 23.11442,-20.67781 49.42206,-14.28756 13.66438,3.31914 13.45498,3.50731 14.36822,-12.91156 0.86775,-15.601 1.86076,-14.29413 -13.00326,-17.11306 -44.99175,-8.53261 -80.17189,1.16739 -93.17919,25.69171 -5.80221,10.93965 -10.93622,34.94711 -6.71183,31.38561 1.04006,-0.87686 5.26602,-2.86405 9.39102,-4.41597 z m 126.52457,-30.94186 c 2.98826,-2.02789 4.81372,-2.44832 10.55152,-2.43019 6.46577,0.0204 7.15305,-0.193 10.09506,-3.135 4.24281,-4.24281 6.58704,-4.9827 15.78696,-4.9827 6.03565,0 7.9597,-0.34344 8.40352,-1.5 0.39386,-1.0264 1.99902,-1.5 5.08393,-1.5 3.82502,0 4.77499,-0.41681 6.26764,-2.75 2.98058,-4.65901 4.32048,-5.17828 13.7868,-5.34295 14.80577,-0.25756 1.39069,-1.88981 -16.5,-2.00761 -27.47832,-0.18093 -47.11696,7.76951 -55.88039,22.62241 -2.44205,4.13896 -2.2825,4.20703 2.40496,1.02604 z"
         id="path2856" />
      <path
         style="fill:#98b9e4"
         d="M 98.142857,499.59684 C 56.458727,491.19371 25.587868,462.08027 15.943021,422.07647 12.508221,407.83 14.13257,105.33412 17.720118,91.134895 26.650665,55.788522 54.794634,27.645043 90.190004,18.66627 105.71387,14.728318 409.79793,14.526014 423.8425,18.444294 c 38.77563,10.817964 66.3541,40.692251 73.79994,79.943532 2.4318,12.819434 3.45619,303.178494 1.11586,316.287104 -7.43644,41.65287 -35.20448,71.91282 -76.6417,83.51956 -10.27095,2.87694 -310.21845,4.17528 -323.973743,1.40235 z m -45,-177.55578 c 38.813989,-8.03213 39.090726,-8.07548 47.971153,-7.51359 10.93567,0.69192 10.59253,1.05224 11.90787,-12.50395 2.25816,-23.27296 1.64473,-32.70137 -2.23304,-34.32161 -32.532241,-13.59284 -31.342548,-89.82117 1.54003,-98.67553 2.91545,-0.78505 3.94222,-1.65001 4.43456,-3.73575 7.48515,-31.70941 10.84887,-39.36475 24.22465,-55.1319 26.54445,-31.29018 90.73721,-40.985489 144.79743,-21.869386 2.60652,0.921683 4.14192,0.743094 9,-1.046827 43.49878,-16.026771 110.52978,-9.283742 125.72829,12.647724 13.45478,19.415249 8.46913,70.777739 -8.11713,83.623229 -5.79087,4.48483 -5.99374,5.21785 -3.75381,13.563 2.22833,8.30191 2.03266,36.20927 -0.32288,46.05105 -4.29889,17.96136 -19.97204,28.91031 -41.42968,28.94194 -4.09987,0.006 -6.88045,37.5799 -3.1029,41.92935 0.45024,0.5184 112.42678,0.33967 112.94673,-0.18028 0.56317,-0.56316 2.38199,-130.30534 2.39623,-170.93001 0.01,-28.4934 -0.29694,-37.06123 -1.52244,-42.5 C 470.4196,68.486702 446.53301,43.922604 415.98073,37.013377 403.95517,34.293864 108.21512,34.009668 96.015522,36.705901 67.653353,42.974226 41.54393,69.299294 35.557592,97.66317 c -1.670529,7.91514 -1.455197,218.72064 0.229999,225.1633 0.728772,2.78616 -0.08087,2.8228 17.355266,-0.78541 z M 152.54952,215.90628 c 1.81996,-2.59837 9.15767,-4.62558 18.08777,-4.99716 6.09539,-0.25363 8.42982,-0.76672 9.82732,-2.15997 1.15799,-1.15447 2.4488,-1.56123 3.50557,-1.10469 2.31484,1.00006 14.45994,0.50613 15.62268,-0.63535 0.5225,-0.51295 1.70856,-0.93264 2.63569,-0.93264 0.92713,0 2.97463,-0.67223 4.55,-1.49384 2.86431,-1.49384 2.86431,-1.49384 -0.8183,-1.5 -4.82017,-0.008 -5.12519,-1.12828 -4.29371,-15.76897 2.2793,-40.13366 17.00113,-49.16091 58.61935,-35.94466 7.6253,2.42148 7.6253,2.42148 8.08721,-13.68552 0.54116,-18.87045 1.33268,-17.34014 -10.19141,-19.70384 -71.73554,-14.71363 -112.108,14.00644 -106.35109,75.65581 0.86155,9.22615 0.55103,9.44102 -13.64352,9.44102 -13.88052,0 -12.62126,-0.82152 -12.21007,7.96568 0.33671,7.19576 22.14344,11.1875 26.57251,4.86413 z m 128.97589,-27.81236 c 0.5596,-0.5596 5.41162,-1.01745 10.78227,-1.01745 8.61994,0 9.88579,-0.22606 10.79669,-1.92808 1.1971,-2.2368 9.98117,-5.07192 15.71434,-5.07192 3.86804,0 3.86804,0 5.14331,-6.75 5.17161,-27.37339 21.19663,-33.81467 57.52663,-23.12294 8.58879,2.52764 8.06187,3.38161 8.50576,-13.78506 0.44198,-17.09258 1.25212,-15.84419 -11.91285,-18.35726 -68.05991,-12.99199 -103.90761,10.18386 -103.93588,67.19545 -0.003,5.7461 3.22853,6.98846 7.37973,2.83726 z"
         id="path2854" />
      <path
         style="fill:#94b4dd"
         d="M 98.142857,499.59684 C 56.681799,491.23868 25.537716,462.0096 16.076345,422.57647 12.437302,407.40965 14.189294,103.25072 17.994466,89.576468 27.635604,54.930125 56.51592,26.906692 91.142857,18.598399 107.42584,14.691505 408.28951,14.612528 423.29472,18.511209 c 35.97572,9.347281 62.90249,36.388539 73.07911,73.389826 3.55047,12.909195 5.59866,304.252605 2.27197,323.175435 -7.23044,41.12814 -35.2444,71.55397 -76.5292,83.11802 -10.27095,2.87694 -310.21845,4.17528 -323.973743,1.40235 z m -22.5,-161.0532 c 6.161689,0.10624 10.287873,-0.2382 10.75,-0.89738 0.522885,-0.74584 0.98205,-0.7122 1.516295,0.11108 0.57402,0.88458 3.48014,0.94523 11.582095,0.24173 5.948693,-0.51654 11.161793,-0.72533 11.584663,-0.46398 1.00576,0.6216 1.92413,-14.23539 2.73177,-44.19318 0.65334,-24.23456 0.65334,-24.23456 -3.25574,-25.85406 -31.950351,-13.23676 -31.07038,-86.71096 1.17667,-98.24809 4.68296,-1.67544 4.68296,-1.67544 8.39821,-16.66936 13.93529,-56.239606 65.33014,-83.723801 133.5678,-71.427457 11.62629,2.095043 28.00058,5.99885 31.46527,7.501657 3.26032,1.414161 3.85072,1.377909 8.08847,-0.496653 20.85895,-9.226904 53.41086,-12.042899 82.13475,-7.105299 45.1335,7.758389 51.80532,15.071883 51.7256,56.700432 -0.0534,27.88143 -3.09871,36.90836 -15.64767,46.38292 -2.925,2.20839 -5.31047,4.11318 -5.30104,4.23286 0.009,0.11969 0.90171,3.59261 1.98286,7.71761 10.90615,41.61119 -4.46359,72.29991 -37.5,74.87615 -6.74548,0.52602 -13.14885,59.80833 -7.11224,65.84494 0.37214,0.37214 10.95685,1.34527 13.36224,1.22849 3.44165,-0.16709 15.22641,-0.0711 28.0916,0.22872 7.88789,0.18385 14.54284,0.009 14.78878,-0.38926 0.24594,-0.39794 1.66722,-0.50812 3.15839,-0.24483 1.49118,0.26328 13.28623,0.67441 26.21123,0.91362 12.925,0.23921 24.4,0.57155 25.5,0.73855 2.67885,0.40668 3.02251,-11.33947 3.98464,-136.19638 0.73674,-95.60668 0.72441,-96.5762 -1.33175,-104.731655 C 469.38888,66.983452 445.2635,43.051253 415.14286,36.689622 403.72089,34.277244 107.46344,34.136008 96.215993,36.537578 68.298041,42.498658 41.624579,68.999049 35.578438,96.781685 c -2.19888,10.104075 -1.389719,238.673985 0.852869,240.916565 0.877224,0.87723 19.1098,1.13483 21.358073,0.30177 1.372693,-0.50863 2.813685,-0.30752 3.997165,0.55786 1.017853,0.74427 2.301918,1.00675 2.853477,0.58328 0.551559,-0.42346 5.502835,-0.69235 11.002835,-0.59752 z m 92.067663,-82.93099 c 4.68048,-0.29798 10.12245,-1.21551 12.09327,-2.03898 1.97083,-0.82346 5.4732,-1.4972 7.78306,-1.4972 10.12647,0 13.29258,-2.33218 13.73237,-10.11537 0.53216,-9.41791 -1.72064,-8.9041 37.82364,-8.62667 34.5,0.24204 34.5,0.24204 35,3.74204 0.36036,2.52252 0.98874,3.47673 2.25,3.41667 0.9625,-0.0458 3.12537,-0.15834 4.80637,-0.25 2.0298,-0.11069 4.04328,-1.2472 5.99466,-3.38368 3.38527,-3.7064 16.10225,-5.56566 18.14225,-2.65246 0.74321,1.06134 1.0731,1.08822 1.46618,0.11947 0.28255,-0.69633 2.21591,-1.25 4.36486,-1.25 2.1217,0 4.09471,-0.38357 4.38445,-0.85239 0.28974,-0.46881 3.54689,-1.1344 7.23812,-1.4791 3.69122,-0.34469 7.17071,-1.08611 7.73221,-1.64761 0.56149,-0.56149 4.32383,-1.0209 8.36074,-1.0209 5.50148,0 8.37911,-0.5302 11.48926,-2.11688 3.24504,-1.6555 5.22032,-1.99004 9.06292,-1.53494 4.2785,0.50673 4.97846,0.3335 5.41619,-1.34037 0.28018,-1.0714 2.00529,-2.41821 3.89724,-3.04261 16.28988,-5.37615 2.98089,-16.9652 -19.48301,-16.9652 -27.93916,0 -25.57684,1.64155 -24.84973,-17.26787 1.46336,-38.05602 16.7751,-47.26235 57.15389,-34.36434 10.15076,3.24241 9.5734,4.10509 9.5734,-14.30436 0,-18.81708 1.10927,-17.27454 -14.54897,-20.23156 -66.67802,-12.59199 -101.1053,10.0833 -103.16855,67.95123 -0.70273,19.70933 3.93766,17.48805 -36.10383,17.28235 -38.36919,-0.19711 -35.15451,0.76964 -35.13246,-10.56545 0.0802,-41.23209 14.73074,-52.39912 53.61302,-40.8653 15.14754,4.49328 13.43148,6.2849 13.11492,-13.69248 -0.31477,-19.86503 1.34109,-17.60073 -14.96139,-20.45891 -68.34354,-11.9821 -102.76877,11.51994 -102.80519,70.1849 -0.0103,16.58614 1.10357,15.33179 -13.61454,15.33179 -12.39301,0 -12.39301,0 -12.39301,15.5 0,15.5 0,15.5 11.75,15.51531 15.39454,0.0201 14.67933,-0.64022 15.08326,13.92499 0.33326,12.01696 0.33326,12.01696 3.77885,10.5773 1.89508,-0.79181 7.27508,-1.68345 11.95555,-1.98142 z"
         id="path2852" />
      <path
         style="fill:#86a9d6"
         d="M 99.377711,499.58991 C 53.849573,491.26881 17.674221,453.7171 14.590159,411.57647 12.841892,387.68814 15.838478,99.452121 17.913599,91.901035 28.034065,55.07402 53.27322,29.741544 90.642857,18.90286 c 13.183613,-3.823773 315.440253,-4.145031 331.179833,-0.352 40.48823,9.757133 71.05638,43.652503 76.22846,84.52561 1.92182,15.18744 2.43841,299.48839 0.5645,310.66624 -7.03588,41.96894 -34.91336,72.7288 -76.26698,84.15257 -11.39482,3.14777 -306.54686,4.69644 -322.970959,1.69463 z M 111.71529,399.31116 c 1.02229,-0.70033 1.92757,-52.43794 1.92757,-110.16206 0,-21.42738 0,-21.42738 -2.58248,-22.11872 -32.068354,-8.58482 -30.355928,-87.54829 2.12195,-97.84762 3.53948,-1.12243 3.53948,-1.12243 6.86984,-14.86436 15.09177,-62.272411 68.44348,-87.266293 148.59069,-69.61086 8.8,1.938531 16.4275,3.939575 16.95,4.446765 1.44892,1.406463 3.85659,1.11643 8.76828,-1.056244 29.05626,-12.852966 95.70943,-10.983343 117.06349,3.283633 22.29823,14.897796 22.12936,77.450456 -0.25,92.601286 -5.68095,3.846 -5.51801,3.35384 -3.62502,10.94915 10.92309,43.82709 -3.77555,73.03713 -38.24911,76.01096 -7.34236,0.63338 -7.34236,0.63338 -7.25132,40.13338 0.12882,55.89163 1.03484,83.76344 2.74419,84.41938 0.74222,0.28482 1.34949,1.20697 1.34949,2.04924 0,2.38093 5.67841,2.00079 7,-0.46862 0.60838,-1.13676 2.09382,-2 3.44156,-2 1.87887,0 2.26261,0.41526 1.84819,2 -0.89062,3.40573 5.23279,2.76236 7.13828,-0.75 1.09381,-2.01622 1.50258,-2.27366 1.53193,-0.96482 0.0335,1.49432 0.37797,1.60433 2.11409,0.67519 1.74325,-0.93296 2.15674,-0.79382 2.59246,0.87236 0.82578,3.15778 8.33349,3.33751 8.33349,0.19949 0,-0.56772 0.675,-1.03222 1.5,-1.03222 0.825,0 1.5,0.64194 1.5,1.42653 0,2.49376 16.99182,2.68639 19.27066,0.21846 1.64494,-1.78143 1.89902,-1.8014 3.57874,-0.28128 2.37943,2.15336 3.1506,2.06433 3.1506,-0.36371 0,-2.46562 2.52546,-2.62544 3.95031,-0.25 0.99113,1.65237 1.11199,1.64568 2.1665,-0.11993 1.0547,-1.76595 1.23783,-1.71815 3.29316,0.85948 2.17636,2.72941 2.17636,2.72941 5.27755,0.11993 3.74168,-3.14842 7.28832,-3.41785 8.02273,-0.60948 0.57893,2.21382 3.24285,2.6469 5.06612,0.82363 0.90183,-0.90183 1.59891,-0.79398 2.98688,0.46211 1.8307,1.65676 5.45942,1.42237 7.93876,-0.51279 0.66111,-0.516 2.08631,-0.65752 3.16713,-0.31448 1.62796,0.51669 1.86901,0.25621 1.40498,-1.51825 -0.44158,-1.68858 -0.16874,-2.06657 1.28903,-1.78583 1.01704,0.19586 2.13358,1.47875 2.48122,2.85086 1.28635,5.07727 2.87891,-117.08236 3.0637,-235.00525 0.0892,-56.9234 0.034,-58.70213 -2.04902,-66.000002 C 468.65741,66.140303 445.55414,43.429596 416.64286,36.546413 405.50857,33.895566 110.72778,32.978309 98.18392,35.555478 66.88896,41.985114 40.206997,68.819571 34.495989,99.607401 c -1.591083,8.577469 -1.369209,53.665589 1.321108,268.469069 0.339687,27.12166 0.881163,31 4.328073,31 2.636086,0 3.139401,-1.18593 1.344881,-3.16885 -1.001082,-1.10618 -1.197281,-1.83115 -0.495568,-1.83115 0.63888,0 2.139776,1.125 3.335323,2.5 2.466304,2.8365 7.813051,3.52083 7.813051,1 0,-0.825 0.401855,-1.5 0.893011,-1.5 0.491156,0 1.152033,0.675 1.468615,1.5 0.885403,2.30732 4.568049,1.94708 3.957636,-0.38714 -0.68235,-2.60931 0.846602,-3.26988 5.752652,-2.48537 2.885077,0.46134 4.344268,1.24799 4.677304,2.52152 0.6567,2.51122 2.119828,2.33059 3.231945,-0.39901 0.916715,-2.25 0.916715,-2.25 1.589919,0.0211 0.531727,1.7938 0.962765,2.03076 2.051061,1.12755 1.020111,-0.84662 1.729034,-0.85207 2.730415,-0.021 1.85938,1.54315 13.363703,0.30417 14.061548,-1.51439 0.691714,-1.80258 3.073914,-1.73236 4.952244,0.14597 2.998233,2.99823 11.442983,4.61838 14.206083,2.72548 z M 177.5563,283.11982 c 27.52422,-8.4529 24.02749,-4.5039 24.39528,-27.55061 0.38592,-24.1835 -4.13204,-21.57456 36.80996,-21.2562 33.88132,0.26346 33.88132,0.26346 34.17571,8.75785 0.38398,11.07938 -0.23948,10.84687 16.3552,6.09925 32.58359,-9.32194 33.27625,-9.56337 34.50441,-12.02681 1.8114,-3.6333 3.16247,-4.03513 13.62225,-4.05152 17.37078,-0.0272 34.46227,-5.06049 35.24052,-10.378 2.7987,-19.12246 1.66495,-20.11788 -23.24142,-20.40568 -27.66281,-0.31965 -25.19033,1.54006 -24.23894,-18.23163 1.75985,-36.57342 18.13618,-45.48538 58.06577,-31.59924 3.73956,1.30049 7.04639,2.11734 7.34851,1.81522 1.00851,-1.00852 0.58904,-34.07339 -0.44034,-34.70958 -5.60568,-3.4645 -43.05869,-6.99279 -57.97759,-5.46182 -40.92458,4.19965 -63.29294,34.05456 -59.26368,79.09885 0.83615,9.34765 2.74706,8.85872 -34.55426,8.84126 -39.40619,-0.0185 -35.59936,1.73744 -34.9566,-16.12361 1.34872,-37.47848 16.00003,-46.38055 55.50648,-33.72551 11.31972,3.62603 9.86007,5.56503 10.64101,-14.13557 0.77725,-19.6074 1.26803,-18.6083 -10.30547,-20.97946 -72.71242,-14.89723 -109.10024,9.68475 -109.10024,73.70323 0,9.06673 -0.20597,10.29276 -1.75,10.41663 -0.9625,0.0772 -6.25,0.0581 -11.75,-0.0424 -13.37805,-0.24462 -12.60545,-1.31305 -12.27699,16.97773 0.27699,15.42427 0.27699,15.42427 12.21472,15.70763 15.69294,0.37249 14.56227,-1.35028 14.56227,22.18821 0,23.38362 0.80622,35.01822 2.38956,34.48362 0.61074,-0.20622 11.42149,-3.54154 24.02388,-7.41184 z"
         id="path2850" />
      <path
         style="fill:#7ba2d8"
         d="M 104.31913,500.0022 C 57.969593,493.98718 21.917723,459.50609 15.160538,414.72824 12.670924,398.23032 15.835669,103.54389 18.620352,92.566344 28.050747,55.390625 56.204228,27.719706 93.3127,19.154255 c 15.83887,-3.655958 318.02841,-3.500647 331.16173,0.170201 36.29006,10.143311 61.64432,36.595794 71.90574,75.020332 2.55665,9.573522 4.18005,306.367622 1.75433,320.731682 -7.73573,45.80783 -43.0626,79.05636 -90.2901,84.97819 -9.84943,1.23502 -293.98288,1.1859 -303.52527,-0.0525 z m 312.78145,-24.46453 c 30.36291,-8.13432 52.66337,-31.03029 59.38309,-60.96884 2.10053,-9.35856 4.60082,-299.2641 2.67631,-310.31545 C 473.25677,70.354647 448.37637,43.486337 416.14286,36.201272 402.73148,33.170179 110.42146,32.280936 96.742392,35.229617 66.616953,41.723506 40.781326,67.451816 34.215702,97.496582 c -2.589718,11.850738 -0.19911,301.374388 2.609884,316.079888 5.749724,30.10066 27.988928,53.42313 59.077216,61.95487 14.164038,3.88712 306.690488,3.89288 321.197778,0.006 z M 142.05612,429.64064 c -27.28199,-7.16352 -29.08418,-13.54113 -27.78054,-98.31006 1.03627,-67.38358 1.19366,-63.70439 -2.7677,-64.69863 -30.462749,-7.64566 -29.896178,-96.55548 0.61529,-96.55548 3.87017,0 5.22974,-2.65974 8.97589,-17.55966 11.06854,-44.02391 38.45218,-66.308482 89.09937,-72.508284 18.01183,-2.204857 66.117,4.028483 76.67106,9.934834 1.05252,0.589019 4.10426,-0.03897 9.17522,-1.888082 29.04187,-10.590049 58.44943,-11.475257 96.38335,-2.901271 13.7205,3.101168 15.29563,3.708317 20.79242,8.014653 19.68465,15.42151 18.48808,74.84581 -1.81578,90.17538 -5.8406,4.40968 -6.05454,5.19069 -3.76184,13.73243 2.11774,7.88992 2.03924,35.72089 -0.12779,45.30259 -3.96445,17.52919 -20.20837,28.68697 -41.77595,28.69548 -4.90374,0.002 -4.90374,0.002 -4.22319,61.25193 1.06974,96.27702 -1.08856,99.72837 -62.37307,99.74106 -39.99253,0.008 -52.74291,-5.01568 -60.58906,-23.87356 -1.08905,-2.6175 -1.08905,-2.6175 -1.85555,-0.1175 -6.43369,20.98396 -54.84374,32.01417 -94.64213,21.56417 z m 36.58674,-144.44269 c 26.73454,-8.23718 24.46563,-5.4283 24.48526,-30.31246 0.0178,-22.54539 -4.46552,-19.87084 34.30009,-20.46203 38.14253,-0.58169 34.28369,-2.29766 35.79668,15.9182 1.7426,20.98018 49.87416,23.85492 49.97441,2.98481 0.0984,-20.48202 -1.37319,-19.68311 37.05764,-20.11844 13.3751,-0.15151 12.88592,0.61803 12.88592,-20.27113 0,-10.86043 0,-10.86043 -20.75,-10.97874 -28.68391,-0.16356 -26.6821,0.60513 -27.05507,-10.38909 -1.38553,-40.84232 14.85582,-52.31798 55.64574,-39.31762 11.41127,3.63694 10.47112,4.76306 10.98005,-13.15193 0.62703,-22.07207 1.9152,-20.88541 -26.82072,-24.70738 -60.22631,-8.0103 -90.48899,14.87124 -92.82444,70.18433 -0.67556,16 -0.67556,16 -34.31352,16.26317 -27.99589,0.21902 -33.72756,0.0297 -34.17216,-1.12895 -1.32741,-3.45918 1.11488,-30.18383 3.28079,-35.89982 6.63886,-17.52046 21.67545,-20.69397 52.37007,-11.05283 11.18659,3.5137 10.65926,4.28189 10.65926,-15.52774 0,-19.91474 1.01014,-18.30778 -13.23657,-21.05711 -69.86737,-13.48301 -106.54726,10.28388 -106.81151,69.20897 -0.0766,17.08907 1.12665,15.69431 -13.53986,15.69431 -14.93307,0 -14.02641,-1.36749 -12.77507,19.26832 0.86301,14.23168 0.86301,14.23168 13.36301,14.73168 12.5,0.5 12.5,0.5 13.25199,28 0.41359,15.125 0.96621,28.07355 1.22804,28.77456 0.57958,1.55174 -0.36207,1.7836 27.01997,-6.65308 z"
         id="path2848" />
      <path
         style="fill:#739bd4"
         d="m 101.64286,499.49257 c -45.487004,-7.02617 -80.458538,-41.54541 -86.535285,-85.4161 -1.237948,-8.93729 0.532506,-263.93307 1.905637,-274.46596 0.589723,-4.52358 11.93468,-11.09512 14.558359,-8.43288 0.216187,0.21936 0.949767,43.14884 1.630178,95.39884 2.765639,212.37836 1.665307,190.29015 10.338505,207.53643 10.512886,20.90442 28.61143,35.71702 52.102603,42.64292 8.861233,2.61256 304.230683,3.33508 317.000003,0.77544 30.9063,-6.19525 53.61039,-27.37506 63.19768,-58.95479 3.65651,-12.04423 5.82064,-306.58236 2.35531,-320.557003 -7.70108,-31.056135 -32.56999,-56.025149 -62.05299,-62.302755 -6.53178,-1.390767 -23.47016,-1.684877 -131.20799,-2.278236 -123.708,-0.681314 -123.708,-0.681314 -119.79402,-4.595289 2.15268,-2.152686 4.16886,-4.717042 4.48038,-5.698569 0.66766,-2.103613 6.37934,-4.699345 12.03541,-5.469621 15.88575,-2.163409 232.37683,-0.58486 241.48622,1.760801 35.11041,9.040911 62.55349,36.155333 72.00298,71.14067 4.84955,17.954762 5.8725,317.457912 1.14077,334.000002 -11.74609,41.0642 -43.22177,68.58684 -85.77259,75.00037 -14.17857,2.13708 -294.98624,2.06047 -308.87116,-0.0843 z m 39.72608,-70.52594 c -26.03844,-6.90111 -27.75932,-13.17674 -26.92648,-98.19395 0.61523,-62.80379 0.61523,-62.80379 -3.59218,-64.65138 -30.569653,-13.42396 -28.962992,-89.4917 2.02015,-95.64487 4.40514,-0.87485 4.45994,-0.98574 8.59752,-17.39996 15.32797,-60.807632 68.96483,-84.969808 148.93177,-67.090352 7.55786,1.689828 14.55104,3.577942 15.5404,4.195809 1.41996,0.886781 3.68433,0.483118 10.75079,-1.916513 35.54775,-12.071325 90.18066,-10.552198 113.28141,3.14991 22.62514,13.420006 23.15059,77.307126 0.75799,92.161146 -5.7806,3.83454 -5.80103,3.90766 -3.53229,12.64339 10.80376,41.59969 -4.3117,71.28766 -37.55516,73.76133 -8,0.59528 -8,0.59528 -8.17283,62.85841 -0.26902,96.91364 -1.08569,98.20041 -62.32717,98.20438 -41.54561,0.003 -55.05374,-5.32642 -60.22452,-23.7593 -1.04022,-3.70821 -1.04022,-3.70821 -2.35114,0.0292 -3.68286,10.49973 -13.1141,18.84227 -24.70485,21.85302 -10.76741,2.79689 -59.7095,2.65785 -70.49341,-0.20026 z m 59.42308,-95.20599 c 0.11478,-0.11478 0.84034,-21.83675 1.61235,-48.27103 0.77201,-26.43429 1.73055,-48.59127 2.13009,-49.23774 0.91433,-1.47942 66.1661,-1.70007 67.07662,-0.22682 0.32244,0.52172 1.06994,22.68422 1.66111,49.25 0.59118,26.56578 1.15962,48.39462 1.2632,48.50852 0.44529,0.48965 47.79815,0.43556 48.28887,-0.0552 0.29839,-0.2984 0.82965,-22.14507 1.18057,-48.54817 0.76237,-57.3608 -2.81183,-50.37291 26.04498,-50.92043 22.92527,-0.43498 22.92527,-0.43498 23.58488,-9.55916 1.74373,-24.12043 2.79337,-23.06488 -23.49183,-23.62414 -23.5,-0.5 -23.5,-0.5 -23.4974,-15.5 0.006,-36.91893 15.72444,-45.95785 55.9974,-32.20223 10.00137,3.41606 9.5,4.2765 9.5,-16.30355 0,-20.44546 1.38797,-18.44119 -14.85123,-21.44564 -69.9832,-12.94774 -116.15593,21.70333 -105.63732,79.27722 1.14139,6.2474 1.53324,6.1742 -33.05211,6.1742 -38.12325,0 -34.46114,1.20721 -34.45179,-11.35699 0.0297,-39.81548 15.41244,-49.65739 56.3204,-36.03379 10.10985,3.36689 9.78506,3.87794 10.42337,-16.4011 0.64178,-20.38949 1.65578,-18.99415 -16.25132,-22.36302 -69.22198,-13.02275 -105.5,12.50159 -105.5,74.22726 0,10.92764 0,10.92764 -11.75,10.94295 -15.48857,0.0202 -14.35285,-1.44218 -14.02561,18.05954 0.27561,16.42515 0.27561,16.42515 12.21334,16.70851 15.75292,0.37392 14.26624,-2.90171 14.98164,33.00926 1.4852,74.55299 -1.38102,67.17669 25.88114,66.60578 13.27697,-0.27804 24.23386,-0.59944 24.34865,-0.71423 z"
         id="path2846" />
      <path
         style="fill:#6a95d1"
         d="M 96.768324,498.53186 C 59.320532,491.04065 31.765983,466.73347 18.869471,429.81356 15.642857,420.57647 15.642857,420.57647 15.9278,307.13683 16.242293,181.93325 15.650754,191.07647 23.436561,191.07647 c 3.153156,0 5.690782,-0.58097 6.758602,-1.54734 1.60988,-1.45692 1.745392,1.12872 2.319127,44.25 1.815731,136.46823 2.721149,175.79829 4.217757,183.21333 5.504021,27.27004 28.615147,51.07978 57.772677,59.51905 12.564196,3.63655 309.427846,4.12703 322.658236,0.53311 29.95701,-8.13758 50.41606,-28.72253 59.67058,-60.03775 1.72602,-5.84047 2.89067,-94.28876 3.24489,-246.4304 0.18409,-79.068086 -0.0293,-80.549572 -14.71915,-102.181309 -20.77873,-30.59803 -36.5433,-35.318693 -117.94621,-35.318693 -58.75096,0 -58.75096,0 -53.51059,-4.868539 2.88221,-2.677697 5.24038,-5.326423 5.24038,-5.886059 0,-5.803787 100.65747,-8.069099 122.7505,-2.762518 35.6891,8.572252 62.67188,34.840148 72.94985,71.017116 4.82031,16.966802 6.23993,316.281812 1.57816,332.742162 -10.78951,38.09689 -35.85421,63.16644 -74.03635,74.05066 -9.80889,2.79612 -312.05624,3.87525 -325.616696,1.16257 z m 45.874536,-69.56928 c -28.15534,-6.90118 -30.66677,-18.30138 -27.45505,-124.62781 1.07159,-35.47615 0.86482,-38.2583 -2.84348,-38.2583 -31.140011,0 -29.801973,-87.27312 1.45872,-95.14465 4.08404,-1.02838 4.32707,-1.30746 5.84683,-6.71416 0.87212,-3.10266 1.7757,-6.20369 2.00794,-6.89119 0.23225,-0.6875 1.7022,-1.25 3.26656,-1.25 1.85496,0 3.84404,-1.0435 5.71848,-3 1.5808,-1.65 3.36984,-3 3.97565,-3 0.60581,0 2.86676,-0.9 5.02435,-2 2.15759,-1.1 4.84023,-1.99637 5.96144,-1.99193 1.19375,0.005 4.15281,-2.27455 7.14034,-5.5 7.6758,-8.28707 9.14118,-7.37741 4.41702,2.74193 -6.14224,13.15692 -9.99637,35.9804 -8.81428,52.19659 0.29548,4.05341 0.29548,4.05341 -12.44294,4.3332 -15.29889,0.33603 -14.20842,-1.25935 -13.57311,19.85775 0.52253,17.36878 -0.43027,16.32691 14.94972,16.34715 11.63819,0.0153 11.63819,0.0153 12.21909,24.76531 0.3195,13.6125 1.01269,42.075 1.54043,63.25 0.52774,21.175 0.99165,43.98109 1.03091,50.68019 0.0714,12.1802 0.0714,12.1802 2.87446,11.37629 1.54169,-0.44216 4.80419,-0.64831 7.25,-0.45811 2.44581,0.19019 8.49692,0.33416 13.44692,0.31993 15.31691,-0.044 16.90976,-0.002 20,0.53125 5.86445,1.01141 5.57807,3.37953 6.65821,-55.05867 1.73843,-94.05393 1.78404,-95.24174 3.67864,-95.81061 10.94861,-3.28744 64.73577,0.34583 65.4301,4.41973 0.60142,3.5288 2.22429,87.53064 2.66126,137.75073 0.0718,8.25073 0.0718,8.25073 10.5372,7.88208 5.75597,-0.20276 10.72396,-0.11011 11.03997,0.2059 0.48003,0.48004 26.70083,0.3074 27.13881,-0.17868 0.36973,-0.41033 1.39169,-51.07445 1.96443,-97.38806 0.46381,-37.50537 0.95001,-51.4907 1.81503,-52.20861 0.64984,-0.53931 11.37165,-1.29365 23.82626,-1.67629 25.84501,-0.79405 24.19764,0.73634 23.56008,-21.88707 -0.30999,-11 -0.30999,-11 -23.80999,-11.54652 -27.78097,-0.64607 -24.00153,1.11877 -23.99245,-11.20348 0.0294,-39.93207 15.37248,-49.77769 56.3204,-36.14078 10.0605,3.35045 9.70775,3.90577 10.39343,-16.36197 0.67783,-20.03593 1.31678,-18.95186 -12.72138,-21.58389 -73.19176,-13.72281 -109,10.22897 -109,72.909 0,11.42764 0,11.42764 -33,11.42764 -33,0 -33,0 -33,-11.95078 0,-38.23396 15.40482,-47.49314 55.90556,-33.60246 9.29591,3.18825 17.0904,-29.39574 8.69796,-36.36084 -2.90401,-2.41012 -26.79401,-6.24714 -43.10352,-6.92294 -16,-0.66298 -16,-0.66298 -12.07887,-4.16298 3.7261,-3.32591 8.90871,-8.460494 11.07887,-10.976203 0.55,-0.637574 3.25,-3.316169 6,-5.952432 2.75,-2.636263 5.58024,-5.530792 6.28943,-6.432286 2.27525,-2.892229 38.61161,2.414226 47.30104,6.907703 2.49685,1.291172 3.38426,1.184902 9.58027,-1.14727 22.37984,-8.423752 55.66392,-11.6293 78.32926,-7.543795 46.5717,8.39471 53.02504,15.252732 53.00692,56.330933 -0.0114,25.77546 -3.27658,35.33306 -15.25692,44.6585 -6.47231,5.03802 -6.24306,4.40253 -4.33273,12.01051 11.02458,43.90588 -5.32701,75.14434 -39.33388,75.14434 -6.08339,0 -6.08339,0 -6.09119,62.25 -0.0121,96.54853 -1.39508,98.75 -62.03503,98.75 -39.85128,0 -56.17315,-6.51301 -59.54617,-23.76105 -0.9153,-4.68042 -2.16132,-4.8737 -3.34658,-0.51912 -5.73684,21.07672 -52.65821,32.19283 -93.56442,22.16628 z"
         id="path2844" />
      <path
         style="fill:#5886c8"
         d="M 95.142857,497.94854 C 41.287685,486.69042 15.164863,449.47585 15.149863,383.99055 15.12418,271.86877 15.801952,263.07647 24.470752,263.07647 c 1.334969,0 2.987416,-0.675 3.672105,-1.5 4.146143,-4.9958 4.435127,0.0762 5.526718,97 0.421319,37.40954 0.884373,49.83439 2.098737,56.31414 5.607105,29.91911 29.810211,54.83082 60.944343,62.72864 13.888215,3.52303 303.657355,3.92239 318.430205,0.43885 31.08778,-7.3307 53.62586,-29.63791 62.11795,-61.48163 3.2008,-12.00242 5.02621,-306.11705 1.97909,-318.876995 -3.55943,-14.905266 -10.9556,-28.924477 -21.26667,-40.31032 -5.69642,-6.290188 -5.66235,-6.097752 -1.84634,-10.427178 1.64121,-1.86203 2.99121,-3.948009 3,-4.635509 0.037,-2.896422 3.68995,-0.799313 10.45136,6 16.12822,16.21862 25.13266,35.462515 27.4898,58.750002 1.91102,18.88001 2.52963,297.21655 0.68365,307.59846 -7.67093,43.14168 -38.15467,74.74993 -80.39173,83.35729 -15.44497,3.14749 -307.12263,3.07174 -322.217113,-0.0837 z M 141.57,428.15359 c -25.19913,-6.11014 -26.85327,-12.24929 -26.10965,-96.90268 0.56505,-64.32557 0.56505,-64.32557 -3.12622,-65.86767 -12.04463,-5.03189 -24.990918,-24.30677 -16.326042,-24.30677 1.548377,0 5.249632,-1.34185 8.225002,-2.98188 2.97537,-1.64004 6.76402,-2.99004 8.41922,-3 1.91252,-0.0115 3.46472,-0.74712 4.25848,-2.01812 1.55464,-2.48939 4.23207,-2.61592 4.23207,-0.2 0,3.62642 2.00754,4.2 14.7,4.2 12.3,0 12.3,0 12.2942,10.75 -0.003,5.9125 0.44237,22 0.99012,35.75 0.54775,13.75 1.27833,44.2375 1.6235,67.75 0.62759,42.75 0.62759,42.75 26.00988,42.75 13.96027,0 25.43896,-0.1125 25.5082,-0.25 0.0693,-0.1375 0.53869,-28.15 1.04322,-62.25 1.57864,-106.69844 -2.6441,-94.95883 34.26658,-95.2643 19.56735,-0.16194 32.30959,0.10959 32.90111,0.70111 0.78918,0.78918 2.2146,81.01099 2.59978,146.31319 0.0524,8.87707 46.59195,18.41961 51.20916,10.5 0.0802,-0.1375 0.41767,-35.21529 0.75,-77.95063 0.71507,-91.95164 -3.06468,-80.16136 25.90282,-80.79937 25.75863,-0.56733 23.90312,1.12739 24.08722,-22 0.11233,-14.11107 2.31766,-12.91686 -24.43288,-13.23071 -22.95291,-0.26929 -22.95291,-0.26929 -22.90337,-13.26929 0.13927,-36.54475 14.50513,-44.80536 55.19585,-31.73857 10.51146,3.37549 10.12105,3.94453 10.90339,-15.89232 0.74491,-18.88771 0.36757,-21.57592 -3.15265,-22.45944 -2.42666,-0.60905 0.005,-6.15729 2.78442,-6.35434 0.8971,-0.0636 6.27163,-5.99965 9.21945,-10.182708 1.1,-1.560935 2.5625,-2.845839 3.25,-2.855343 0.6875,-0.0095 1.25,-0.419136 1.25,-0.910292 0,-1.743272 3.31583,-2.130067 5.57432,-0.650249 18.68826,12.245022 17.40019,71.904802 -1.87121,86.669722 -6.70131,5.13426 -6.64508,4.96671 -4.57284,13.62584 10.65491,44.52288 -4.72916,72.38368 -41.13027,74.48761 -4.5,0.26009 -4.5,0.26009 -4.52292,63.26009 -0.0347,95.45922 -0.68941,96.48632 -61.47708,96.44871 -41.85839,-0.0259 -54.03284,-4.80796 -59.39555,-23.33027 -1.41331,-4.88144 -2.69453,-4.7591 -4.21867,0.40283 -5.95121,20.15549 -53.61785,30.83744 -93.95864,21.05585 z m 71.75143,-230.54242 c 0.72679,-0.80591 1.82697,-2.07594 2.44485,-2.82228 0.61788,-0.74635 4.21788,-2.4014 8,-3.67789 8.00427,-2.7015 11.07678,-4.51459 11.86636,-7.00232 0.92804,-2.92399 14.77901,-9.03221 20.4814,-9.03221 6.20178,0 7.96686,-0.70683 9.08067,-3.63638 0.63054,-1.65844 1.68383,-2.36362 3.53039,-2.36362 1.98896,0 2.48349,0.38634 2.02475,1.58179 -0.33385,0.86998 -0.60699,7.61998 -0.60699,15 0,13.41821 0,13.41821 -29.07143,13.41821 -25.4698,0 -28.90772,-0.18153 -27.75,-1.4653 z"
         id="path2842" />
      <path
         style="fill:#4c7cc2"
         d="m 100.14286,498.59903 c -42.558774,-7.22018 -74.758627,-37.9675 -83.555479,-79.78628 -1.596524,-7.58962 -2.150573,-91.0761 -0.62041,-93.48593 10.264595,-16.16553 16.715522,-0.12986 17.801022,44.24965 1.217059,49.75821 1.270131,50.21391 7.361971,63.21356 10.825881,23.10183 30.360613,39.13927 55.659595,45.69489 9.048131,2.34461 310.001381,2.43247 319.054511,0.0931 30.70854,-7.93506 52.3439,-28.84069 61.57856,-59.5016 1.85921,-6.17293 1.99697,-11.33055 2.73775,-102.5 1.06915,-131.58266 1.59737,-150.5 4.20233,-150.5 1.09577,0 2.87723,-1.125 3.95881,-2.5 1.08158,-1.375 2.60884,-2.5 3.39392,-2.5 0.78508,0 1.42742,-0.9 1.42742,-2 0,-1.29147 0.66667,-2 1.88182,-2 1.8059,0 1.90592,1.82556 2.47919,45.25 1.66389,126.0376 1.71914,199.98341 0.15705,210.17342 -6.98528,45.56709 -39.75815,78.76783 -84.99541,86.10511 -12.44973,2.01928 -300.61739,2.01379 -312.52265,-0.006 z m 42.5,-70.88911 c -25.16682,-6.97643 -27.90848,-14.95032 -27.20844,-79.13345 0.5738,-52.60881 -1.51704,-46.22413 16.9813,-51.85479 18.79483,-5.7209 16.66131,-11.50197 17.50517,47.43282 0.72197,50.42197 0.72197,50.42197 26.72197,50.42197 29.91144,0 27.13131,7.49764 27.3709,-73.81574 0.15065,-51.13038 -1.03024,-46.44658 12.85552,-50.989 48.13337,-15.74577 52.45173,-17.02504 53.22836,-15.76842 0.43393,0.70211 1.11436,32.39329 1.51208,70.42486 0.85009,81.29025 -3.28496,70.74078 27.60069,70.41585 29.60764,-0.31147 26.591,10.14935 26.80335,-92.94612 0.15493,-75.21851 -3.42538,-65.82143 25.07808,-65.82143 25.73146,0 23.6812,1.14649 24.62509,-13.77021 0.71058,-11.22979 0.71058,-11.22979 5.81826,-11.22078 4.3867,0.008 5.46056,-0.39713 7.60767,-2.86831 4.31278,-4.96371 15.86131,-9.63567 16.92202,-6.8458 12.29545,32.33947 -5.58296,65.03866 -36.92202,67.52951 -8.5,0.67559 -8.5,0.67559 -9.0421,65.17559 -0.7994,95.11405 -1.3677,96 -61.58001,96 -39.82558,0 -52.54246,-5.32605 -58.4236,-24.4688 -1.9247,-6.26475 -2.98972,-6.33999 -4.52551,-0.3197 -5.52423,21.65495 -53.73397,33.28705 -92.92878,22.42195 z"
         id="path2840" />
      <path
         style="fill:#4974b9"
         d="m 100.06459,498.53414 c -44.790721,-8.16694 -76.991511,-40.24417 -83.939996,-83.6179 -1.177101,-7.34768 -1.127395,-88.05431 0.05493,-89.19246 11.98539,-11.53764 16.474863,-0.233 17.01831,42.85269 0.634187,50.2797 0.610785,50.10881 9.240161,67.47379 9.927551,19.97732 29.205583,35.56589 52.20486,42.21381 11.152165,3.22353 310.908885,3.71198 322.500005,0.52551 30.35154,-8.34381 53.27649,-31.46313 60.93262,-61.44922 1.96796,-7.70774 2.07911,-11.54665 2.58864,-89.40871 0.75306,-115.07533 0.98496,-121.6117 4.33676,-122.23511 12.8176,-2.38401 11.78213,-4.62901 12.49519,27.0907 1.60763,71.51366 0.94543,177.13012 -1.17194,186.9162 -8.50694,39.3174 -37.49546,68.24042 -78.18127,78.00463 -10.18009,2.44313 -305.01035,3.20882 -318.07827,0.82607 z m 41.87498,-71.28927 c -12.56896,-3.12832 -21.42068,-12.08986 -24.24035,-24.54107 -2.49354,-11.01109 -2.31375,-98.15162 0.20528,-99.49977 3.5115,-1.87929 29.26936,-9.22644 30.24103,-8.62591 0.64067,0.39596 1.00281,18.02895 1.01264,49.30737 0.0184,58.55617 -3.98652,51.28156 28.05419,50.95794 26.4305,-0.26696 26.4305,-0.26696 27.18912,-58.76696 0.89012,-68.63998 -0.6442,-60.06237 11.41271,-63.80241 5.40577,-1.67686 19.29873,-6.00731 30.87324,-9.62322 11.57451,-3.6159 21.51559,-6.57437 22.09128,-6.57437 1.50498,0 2.35842,31.86354 2.36152,88.16821 0.001,26.21752 0.27577,48.38002 0.60962,49.25 0.65193,1.6989 52.71816,2.50497 53.72734,0.83179 0.24879,-0.4125 0.78473,-35.52264 1.19097,-78.02254 0.52682,-55.11513 1.05921,-77.48113 1.85666,-78 0.61492,-0.4001 11.14773,-0.95246 23.40624,-1.22746 24.83604,-0.55716 24.1695,-0.3468 24.19649,-7.6365 0.0138,-3.72241 0.2906,-4.18547 2.76531,-4.62563 1.5125,-0.26901 8.02986,-1.67009 14.48302,-3.1135 6.45315,-1.4434 12.19065,-2.62437 12.75,-2.62437 1.65269,0 1.1184,14.78465 -0.83126,23.00201 -3.92644,16.54903 -17.0867,25.99799 -36.20933,25.99799 -11.22938,0 -10.32293,-5.9389 -9.65881,63.28298 0.92621,96.54063 0.23655,97.66202 -60.08621,97.69988 -41.00897,0.0257 -55.70479,-5.6673 -58.79171,-22.77544 -1.52618,-8.45834 -3.55225,-8.93345 -5.39202,-1.26444 -2.53254,10.55679 -11.56534,19.09967 -23.4637,22.19105 -9.92341,2.57826 -59.43442,2.60265 -69.75327,0.0344 z"
         id="path2838" />
      <path
         style="fill:#3667b5"
         d="M 95.950508,497.10269 C 58.575805,489.22104 31.901571,465.13606 19.503621,428.07647 11.700198,404.75071 15.143549,326.26911 23.986398,325.90406 c 7.935249,-0.32759 7.935249,-0.32759 8.565907,41.17241 1.118104,73.57606 15.549606,99.2891 62.822169,111.93218 10.589986,2.83229 310.513746,3.30051 320.614476,0.50052 31.77482,-8.80821 53.221,-29.43884 62.30187,-59.9327 2.07595,-6.9711 3.17048,-51.15341 3.74694,-151.25 0.1051,-18.25 0.1051,-18.25 7.44207,-18.25 10.62801,0 13.56807,149.31809 3.54363,179.97171 -11.31867,34.61121 -39.55116,59.62482 -75.58609,66.96827 -14.90346,3.03713 -307.12205,3.11552 -321.486862,0.0862 z m 47.293042,-70.08153 c -14.13192,-3.50552 -21.79266,-11.41271 -25.31531,-26.12974 -1.70974,-7.14298 -2.15619,-95.2398 -0.48844,-96.38113 0.84186,-0.57613 27.80088,-8.43382 28.93566,-8.43382 1.23818,0 1.53627,7.14257 2.04463,48.99223 0.71137,58.56084 -3.4713,51.00777 28.2466,51.00777 32.47429,0 28.47497,7.25745 28.48134,-51.68426 0.008,-76.85609 -6.736,-65.03332 46.3584,-81.26614 20.64838,-6.31293 17.95138,-15.43385 18.76085,63.44679 0.82133,80.03685 -3.48259,69.50361 28.39941,69.50361 32.37908,0 28.47574,6.05614 28.47793,-44.18426 0.005,-110.09572 -3.06529,-101.81574 37.75166,-101.81574 36.43068,0 36.43068,0 34.53276,3.25 -4.81837,8.25094 -19.86225,14.75 -34.143,14.75 -7.78503,0 -7.20231,-5.73261 -6.48431,63.79024 0.98455,95.33188 -0.15688,97.18581 -59.84552,97.20275 -41.72113,0.0118 -53.60387,-5.38827 -58.84696,-26.74299 -0.60609,-2.46857 -1.62782,-4.25 -2.43755,-4.25 -1.44805,0 -1.92943,1.10903 -3.0384,7 -3.84713,20.43644 -51.41936,31.85958 -91.38975,21.94469 z"
         id="path2836" />
      <path
         style="fill:#2e5dad"
         d="m 100.87157,497.56488 c -46.295057,-7.78332 -79.228207,-42.60932 -84.151751,-88.98841 -0.582085,-5.48316 -0.506267,-5.83431 0.880175,-4.07647 1.236621,1.56789 2.721313,1.90527 8.029995,1.82477 6.512868,-0.0988 6.512868,-0.0988 6.512868,2.76441 0,3.33234 2.674723,15.37097 3.957996,17.81451 0.483173,0.92003 2.737438,5.44283 5.009479,10.05066 10.395904,21.08351 30.579182,36.87863 55.135957,43.14853 11.709831,2.98978 309.150311,3.06595 320.396571,0.082 32.63807,-8.65967 58.61651,-35.27504 64.03836,-65.60845 1.07447,-6.01134 2.86748,-7.5 9.03329,-7.5 3.27367,0 5.45225,-0.47228 5.76607,-1.25 1.68568,-4.17756 0.23751,10.66997 -1.84069,18.87178 -9.71943,38.35876 -41.09905,66.27705 -81.93945,72.9011 -12.65661,2.05282 -298.60232,2.02111 -310.82887,-0.0345 z m 42.91179,-71.59387 c -12.92307,-3.12399 -26.55047,-16.29023 -21.05748,-20.34488 1.06549,-0.78649 2.30424,-1.03545 2.78884,-0.56048 0.47952,0.46999 1.49775,0.61435 2.26273,0.3208 0.76498,-0.29355 2.03855,0.004 2.83016,0.66076 0.7916,0.65697 2.24837,0.93975 3.23726,0.62839 0.9889,-0.31137 4.27299,-0.16875 7.29799,0.31691 3.81198,0.61202 5.9225,0.53712 6.87663,-0.24404 1.68832,-1.38226 12.5671,-1.62625 20.47489,-0.4592 4.13299,0.60995 6.2642,0.52109 7.25664,-0.30256 0.95458,-0.79223 3.08632,-0.92124 6.64847,-0.40234 15.00992,2.18648 35.72138,2.24266 37.2873,0.10113 1.35816,-1.8574 3.45607,-2.14254 3.45607,-0.46974 0,0.77944 1.57928,0.95225 5,0.54712 5.99602,-0.71014 6.08625,-0.29166 1.44452,6.6993 -9.67906,14.57772 -53.10194,21.41414 -85.80402,13.50883 z m 121.94347,-0.0129 c -8.71397,-2.10562 -14.44099,-5.94066 -19.68787,-13.18377 -4.44181,-6.13174 -4.05267,-6.69787 4.6039,-6.69787 4.33333,0 7.5,0.42222 7.5,1 0,1.65498 3.83081,1.12475 4.83474,-0.66919 0.78665,-1.40566 1.38654,-1.48734 3.79969,-0.51739 1.86418,0.7493 4.14054,0.85323 6.51401,0.29741 2.02164,-0.47343 4.25109,-0.47251 5,0.002 2.28988,1.45108 5.13303,1.06297 4.48993,-0.6129 -0.34093,-0.88847 -0.0108,-1.5 0.80968,-1.5 0.76191,0 1.57102,0.55721 1.79803,1.23824 0.32468,0.97405 0.97612,0.98155 3.0533,0.0351 2.24684,-1.02373 2.7841,-0.94742 3.60334,0.51176 0.90594,1.61364 1.00258,1.61157 1.63702,-0.0351 0.70884,-1.83974 4.46026,-2.47055 4.46026,-0.74993 0,0.55 1.60458,1 3.56574,1 1.96116,0 4.40885,0.45122 5.43931,1.0027 1.25242,0.67028 2.07903,0.67028 2.49328,0 0.34084,-0.55148 2.52815,-1.0027 4.86069,-1.0027 2.33254,0 4.75073,-0.50975 5.37376,-1.13278 0.66969,-0.66969 1.87568,-0.80892 2.95,-0.34057 3.17624,1.38467 12.70667,1.52171 15.23086,0.219 1.92827,-0.99516 2.49803,-0.99428 2.83333,0.004 0.26676,0.7945 2.39353,1.25 5.83636,1.25 3.14569,0 5.41667,0.444 5.41667,1.05902 0,0.58246 0.45,0.7809 1,0.44098 4.06427,-2.51186 -5.0456,10.02601 -9.77298,13.45051 -9.89623,7.16879 -56.21001,10.1102 -77.64305,4.93114 z"
         id="path2834" />
    </g>
    <text
       xml:space="preserve"
       style="font-size:40px;font-style:normal;font-weight:normal;fill:#000000;fill-opacity:1;stroke:none;font-family:Bitstream Vera Sans"
       x="30.002171"
       y="567.9881"
       id="text2829"><tspan
         sodipodi:role="line"
         id="tspan2831"
         x="30.002171"
         y="567.9881"
         style="font-size:200px;font-style:normal;font-variant:normal;font-weight:bold;font-stretch:normal;fill:#f9f9f9;font-family:Century Schoolbook L;-inkscape-font-specification:Century Schoolbook L Medium">s60</tspan></text>
  </g>
</svg>
